Coordinates
version=1
nRows=11
nColumns=42
inDegrees=yes

Units are S.I. units (second, meters, Newtons, ...)
If the header above contains a line with 'inDegrees', this indicates whether rotational values are in degrees (yes) or radians (no).

endheader
time	pelvis_tilt	pelvis_list	pelvis_rotation	pelvis_tx	pelvis_ty	pelvis_tz	hip_flexion_r	hip_adduction_r	hip_rotation_r	knee_angle_r	knee_adduction_r	knee_angle_r_beta	ankle_angle_r	subtalar_angle_r	mtp_angle_r	hip_flexion_l	hip_adduction_l	hip_rotation_l	knee_angle_l	knee_adduction_l	knee_angle_l_beta	ankle_angle_l	subtalar_angle_l	mtp_angle_l	lumbar_extension	lumbar_bending	lumbar_rotation	arm_flex_r	arm_add_r	arm_rot_r	elbow_flex_r	pro_sup_r	wrist_flex_r	wrist_dev_r	arm_flex_l	arm_add_l	arm_rot_l	elbow_flex_l	pro_sup_l	wrist_flex_l	wrist_dev_l
      2.66000000	     12.04128272	      3.06864989	      5.30278623	      0.82089448	      0.86779397	      0.16751992	     15.53079238	     -6.54327546	    -32.08467901	     17.03235359	      2.04318144	      0.29727065	      8.53190802	     37.36760607	     -7.50081443	    -29.67698994	      4.49311206	    -10.48453063	     15.19754600	     -5.02800927	      0.26524722	     28.80427055	     33.82508516	     -7.50081443	    -34.83892367	      0.52303314	     -2.58230388	     -3.90604191	    -11.99092837	     -3.42369731	     43.49938620	     90.00000001	      0.00000000	      0.00000000	     26.83121329	    -16.84808067	      7.78114183	     49.89348231	     90.00000001	      0.00000000	      0.00000000
      2.67000000	     11.97296701	      2.98836555	      5.39538192	      0.83533851	      0.86679582	      0.16806796	     15.45019433	     -6.09010517	    -32.05195762	     17.71050430	      1.47309179	      0.30910661	      8.10007995	     37.38883669	     -7.50080444	    -29.68526848	      4.07857498	    -10.58106127	     16.95725300	     -5.18444483	      0.29595990	     27.93374035	     33.67801081	     -7.50080444	    -34.54905768	      0.74544274	     -2.51108705	     -3.97455753	    -12.04992064	     -3.53582592	     43.29381139	     90.00000001	      0.00000000	      0.00000000	     26.67972700	    -16.71283486	      7.68057173	     50.24919126	     90.00000001	      0.00000000	      0.00000000
      2.68000000	     12.00795366	      2.59501218	      5.59655315	      0.85017665	      0.86618678	      0.16869547	     15.29895297	     -5.33744461	    -32.53133328	     18.69895020	      0.58366603	      0.32635825	      7.64733357	     37.69447750	     -7.50078967	    -29.69194903	      3.24851820	    -10.93134202	     18.87033085	     -5.40541809	      0.32934940	     26.50604652	     33.60247351	     -7.50078967	    -34.31344462	      1.35058677	     -2.38436048	     -3.99906494	    -12.13736112	     -3.68335920	     43.06322277	     90.00000001	      0.00000000	      0.00000000	     26.28853665	    -16.58415269	      7.47020906	     50.73616061	     90.00000001	      0.00000000	      0.00000000
      2.69000000	     12.09350860	      2.23501637	      5.69948646	      0.86504419	      0.86591753	      0.16939074	     15.24434702	     -4.67051084	    -32.66604873	     20.11180748	     -0.41391156	      0.35101726	      7.41926454	     37.84714635	     -7.50077388	    -29.68899783	      2.50793897	    -11.15133631	     20.85956066	     -5.64162442	      0.36406801	     24.78955192	     33.48902475	     -7.50077388	    -34.13772020	      1.89016387	     -2.19130404	     -4.01026658	    -12.27045739	     -3.74150323	     42.85479545	     90.00000001	      0.00000000	      0.00000000	     25.83771463	    -16.40947319	      7.23363437	     51.10188136	     90.00000001	      0.00000000	      0.00000000
      2.70000000	     12.26791949	      1.91326770	      5.71143026	      0.87985860	      0.86610041	      0.17028523	     15.16203468	     -4.11466953	    -32.33529981	     21.84093691	     -1.28933796	      0.38119626	      7.32448083	     37.78239963	     -7.50076727	    -29.67233151	      1.79299799	    -11.24060366	     23.00047968	     -5.79045401	      0.40143410	     22.98783132	     33.31062527	     -7.50076727	    -34.09148376	      2.35144862	     -1.92540638	     -3.95389325	    -12.40231703	     -3.74504393	     42.65537983	     90.00000001	      0.00000000	      0.00000000	     25.38338479	    -16.22524101	      7.06779824	     51.33432747	     90.00000001	      0.00000000	      0.00000000
      2.71000000	     12.51957727	      1.39671509	      5.75786987	      0.89503765	      0.86660838	      0.17116489	     14.99945526	     -3.40370762	    -32.19143540	     23.77403798	     -2.21826955	      0.41493524	      7.94396507	     37.61758539	     -7.50075443	    -29.64633605	      0.93936404	    -11.41784071	     25.18008242	     -6.18645925	      0.43947534	     20.09548330	     32.93744759	     -7.50075443	    -34.06250951	      3.03383820	     -1.63330822	     -3.91985767	    -12.65056847	     -3.62620148	     42.55008003	     90.00000001	      0.00000000	      0.00000000	     24.70739357	    -16.07033674	      6.75708551	     51.68038706	     90.00000001	      0.00000000	      0.00000000
      2.72000000	     12.89886744	      0.90926428	      5.79858396	      0.91010146	      0.86766702	      0.17210674	     14.55323012	     -2.79619137	    -31.56771802	     25.63293845	     -2.70908429	      0.44737917	      8.59482725	     37.22489469	     -7.50074505	    -29.59271007	      0.04425928	    -11.46603482	     27.53566560	     -6.45934479	      0.48058803	     17.41508039	     32.50555097	     -7.50074505	    -34.21356214	      3.67447419	     -1.32262393	     -3.83430010	    -12.87926836	     -3.47258111	     42.45622337	     90.00000001	      0.00000000	      0.00000000	     24.04616839	    -15.89347815	      6.56227696	     51.87557960	     90.00000001	      0.00000000	      0.00000000
      2.73000000	     13.38849486	      0.38298347	      5.84465952	      0.92513602	      0.86913883	      0.17310428	     13.76655632	     -2.17052646	    -30.69892569	     27.22710768	     -2.78753944	      0.47520267	      9.44880011	     36.68720083	     -7.50073707	    -29.51224089	     -0.90685050	    -11.43738453	     30.00272761	     -6.73236455	      0.52364638	     14.75534962	     32.05804624	     -7.50073707	    -34.48058728	      4.36074005	     -0.99232197	     -3.72133161	    -13.14101770	     -3.27583700	     42.44025674	     90.00000001	      0.00000000	      0.00000000	     23.35836684	    -15.74856408	      6.40396236	     52.01619443	     90.00000001	      0.00000000	      0.00000000
      2.74000000	     13.97393548	     -0.35193000	      5.85487558	      0.93998544	      0.87114952	      0.17425369	     12.54474684	     -1.14619941	    -28.77355700	     28.15541792	     -2.21730083	      0.49140475	     10.51048897	     34.86678687	     -7.50070752	    -29.40276464	     -2.01115229	    -11.46361478	     32.44004060	     -7.10227009	      0.56618552	     12.02113554	     31.47266399	     -7.50070752	    -34.88515778	      5.22937465	     -0.55405679	     -3.57849268	    -13.60655271	     -2.51366535	     42.62645647	     90.00000001	      0.00000000	      0.00000000	     22.57910129	    -15.57209934	      6.16877174	     52.19093888	     90.00000001	      0.00000000	      0.00000000
      2.75000000	     14.62682412	     -1.08906967	      5.96241122	      0.95447630	      0.87348215	      0.17544461	     11.00871571	     -0.16253843	    -27.11186407	     28.68968879	     -1.36313293	      0.50072953	     11.33619857	     33.03063239	     -7.50066584	    -29.11701181	     -3.22383172	    -11.62005027	     35.04963938	     -7.51727517	      0.61173161	     10.10771980	     31.24822853	     -7.50066584	    -35.39779280	      6.09446723	     -0.13012321	     -3.39411338	    -13.95976267	     -2.07388481	     42.85685072	     90.00000001	      0.00000000	      0.00000000	     21.89180967	    -15.43840666	      6.08723034	     52.19627515	     90.00000001	      0.00000000	      0.00000000
      2.76000000	     15.19832323	     -1.82964797	      6.10378856	      0.96852360	      0.87588823	      0.17661198	      9.36929690	      0.85040374	    -25.81529148	     28.73391088	     -0.53547440	      0.50150135	     12.09653735	     31.73384664	     -7.50062934	    -28.48534535	     -4.46834964	    -11.94033234	     37.81996878	     -8.04828711	      0.66008298	      8.88491484	     31.15860600	     -7.50062934	    -35.87115199	      6.95097296	      0.29175833	     -3.16737925	    -14.29982904	     -1.71865725	     43.17581827	     90.00000001	      0.00000000	      0.00000000	     21.21947442	    -15.30344480	      6.06949858	     52.13832135	     90.00000001	      0.00000000	      0.00000000
